<svg width="20" height="21" viewBox="0 0 20 21" fill="none" xmlns="http://www.w3.org/2000/svg">
<g clip-path="url(#clip0_664_526)">
<path d="M10.6499 7.60833C10.4082 7.85 10.0082 7.85 9.76654 7.60833L7.29154 5.13333V13.2083C7.29154 13.55 7.0082 13.8333 6.66654 13.8333C6.32487 13.8333 6.04154 13.55 6.04154 13.2083V5.13333L3.56654 7.60833C3.44154 7.73333 3.2832 7.79167 3.12487 7.79167C2.96654 7.79167 2.8082 7.73333 2.6832 7.60833C2.44154 7.36667 2.44154 6.96667 2.6832 6.725L6.22487 3.18333C6.3082 3.1 6.41654 3.04167 6.54154 3.01667C6.5832 3.00833 6.62487 3 6.66654 3C6.7082 3 6.74987 3.00833 6.79154 3.01667C6.91654 3.04167 7.02487 3.1 7.1082 3.18333L10.6499 6.725C10.8915 6.96667 10.8915 7.36667 10.6499 7.60833Z" fill="#F07591"/>
<path d="M17.3159 14.2753L13.7742 17.817C13.7159 17.8753 13.6492 17.917 13.5742 17.9503C13.4992 17.9837 13.4159 18.0003 13.3326 18.0003C13.2492 18.0003 13.1659 17.9837 13.0909 17.9503C13.0159 17.917 12.9492 17.8753 12.8909 17.817L9.34922 14.2753C9.10755 14.0337 9.10755 13.6337 9.34922 13.392C9.59089 13.1503 9.99088 13.1503 10.2326 13.392L12.7076 15.867V7.79199C12.7076 7.45033 12.9909 7.16699 13.3326 7.16699C13.6742 7.16699 13.9576 7.45033 13.9576 7.79199V15.867L16.4326 13.392C16.6742 13.1503 17.0742 13.1503 17.3159 13.392C17.5576 13.6337 17.5576 14.0337 17.3159 14.2753Z" fill="#F07591"/>
</g>
<defs>
<clipPath id="clip0_664_526">
<rect width="20" height="20" fill="white" transform="translate(0 0.5)"/>
</clipPath>
</defs>
</svg>
