<svg width="16" height="16" viewBox="0 0 16 16" fill="none" xmlns="http://www.w3.org/2000/svg">
<path d="M15.1301 6.06839C14.8667 5.25761 14.3191 4.56938 13.5883 4.13053C12.8574 3.69169 11.9925 3.53182 11.1531 3.68039C11.0336 2.83725 10.6137 2.0656 9.97066 1.5073C9.32763 0.949008 8.50468 0.641602 7.65311 0.641602C6.80153 0.641602 5.97858 0.949008 5.33555 1.5073C4.69252 2.0656 4.27264 2.83725 4.15311 3.68039C3.31348 3.53177 2.44842 3.69164 1.71737 4.13054C0.986325 4.56945 0.438556 5.2578 0.175023 6.06874C-0.0885106 6.87968 -0.0500464 7.75854 0.283326 8.54335C0.616699 9.32817 1.22251 9.96603 1.98911 10.3394C1.58791 11.0919 1.47237 11.9642 1.66381 12.7952C1.85525 13.6263 2.34075 14.3601 3.03076 14.8613C3.72077 15.3625 4.56874 15.5972 5.41826 15.5223C6.26777 15.4473 7.06153 15.0677 7.65311 14.4534C8.24469 15.0677 9.03844 15.4473 9.88796 15.5223C10.7375 15.5972 11.5854 15.3625 12.2755 14.8613C12.9655 14.3601 13.451 13.6263 13.6424 12.7952C13.8338 11.9642 13.7183 11.0919 13.3171 10.3394C14.0837 9.966 14.6895 9.32802 15.0227 8.54309C15.3559 7.75817 15.394 6.87924 15.1301 6.06839ZM12.4921 9.38439L12.2191 9.47339C12.1296 9.50282 12.0482 9.55291 11.9817 9.61962C11.9151 9.68634 11.8652 9.76779 11.836 9.85738C11.8068 9.94697 11.7991 10.0422 11.8135 10.1353C11.828 10.2284 11.8641 10.3168 11.9191 10.3934L12.0881 10.6254C12.4525 11.1277 12.6025 11.7542 12.5049 12.3671C12.4074 12.98 12.0704 13.529 11.5681 13.8934C11.0658 14.2578 10.4393 14.4077 9.82641 14.3102C9.21354 14.2127 8.66452 13.8757 8.30011 13.3734L8.13111 13.1414C8.07536 13.0655 8.00255 13.0039 7.91856 12.9613C7.83457 12.9188 7.74175 12.8967 7.64761 12.8967C7.55347 12.8967 7.46065 12.9188 7.37666 12.9613C7.29266 13.0039 7.21985 13.0655 7.16411 13.1414L7.00011 13.3734C6.63063 13.862 6.08422 14.1862 5.47829 14.2762C4.87236 14.3663 4.25529 14.215 3.75969 13.855C3.26408 13.4949 2.9295 12.9548 2.82786 12.3508C2.72622 11.7467 2.86562 11.1268 3.21611 10.6244L3.38511 10.3924C3.44008 10.3158 3.47625 10.2274 3.49068 10.1343C3.50512 10.0412 3.49742 9.94597 3.4682 9.85638C3.43899 9.76679 3.38908 9.68534 3.32252 9.61862C3.25597 9.55191 3.17463 9.50181 3.08511 9.47239L2.81211 9.38339C2.22227 9.19177 1.7327 8.77369 1.45112 8.22111C1.16953 7.66854 1.11899 7.02673 1.31061 6.43689C1.50223 5.84705 1.92031 5.35749 2.47289 5.0759C3.02546 4.79432 3.66727 4.74377 4.25711 4.93539L4.53011 5.02439C4.61988 5.05314 4.71517 5.06034 4.80825 5.04539C4.90133 5.03044 4.98957 4.99377 5.06583 4.93836C5.14209 4.88294 5.20422 4.81033 5.24718 4.72642C5.29014 4.64251 5.31273 4.54966 5.31311 4.45539V4.16839C5.32576 3.55656 5.5777 2.97405 6.01487 2.54582C6.45205 2.11759 7.03964 1.87775 7.65161 1.87775C8.26357 1.87775 8.85117 2.11759 9.28834 2.54582C9.72552 2.97405 9.97746 3.55656 9.99011 4.16839V4.45539C9.99049 4.54966 10.0131 4.64251 10.056 4.72642C10.099 4.81033 10.1611 4.88294 10.2374 4.93836C10.3136 4.99377 10.4019 5.03044 10.495 5.04539C10.588 5.06034 10.6833 5.05314 10.7731 5.02439L11.0461 4.93539C11.3402 4.83252 11.6519 4.78944 11.9629 4.80869C12.2738 4.82793 12.5778 4.90911 12.857 5.04746C13.1362 5.18581 13.3849 5.37853 13.5885 5.61432C13.7922 5.85012 13.9467 6.12422 14.0429 6.42054C14.1392 6.71686 14.1753 7.02943 14.1491 7.33989C14.1229 7.65036 14.0349 7.95246 13.8904 8.22846C13.7458 8.50446 13.5476 8.7488 13.3073 8.94713C13.067 9.14546 12.7895 9.29378 12.4911 9.38339L12.4921 9.38439Z" fill="#828281"/>
<path d="M7.65271 6.05566C7.17981 6.05566 6.71754 6.19589 6.32434 6.45862C5.93114 6.72134 5.62469 7.09478 5.44372 7.53168C5.26276 7.96858 5.2154 8.44932 5.30766 8.91313C5.39992 9.37694 5.62763 9.80297 5.96202 10.1374C6.29641 10.4717 6.72244 10.6995 7.18625 10.7917C7.65006 10.884 8.13082 10.8366 8.56772 10.6557C9.00462 10.4747 9.37804 10.1682 9.64076 9.77504C9.90349 9.38184 10.0437 8.91957 10.0437 8.44667C10.0429 7.81278 9.79076 7.20508 9.34253 6.75685C8.8943 6.30862 8.2866 6.05646 7.65271 6.05566ZM7.65271 9.64267C7.41537 9.64267 7.18338 9.57229 6.98604 9.44043C6.7887 9.30857 6.63489 9.12116 6.54407 8.90189C6.45324 8.68261 6.42947 8.44133 6.47577 8.20856C6.52207 7.97578 6.63636 7.76197 6.80418 7.59415C6.97201 7.42632 7.18583 7.31203 7.41861 7.26573C7.65139 7.21943 7.89267 7.24319 8.11194 7.33401C8.33121 7.42484 8.51862 7.57865 8.65048 7.77599C8.78234 7.97332 8.85272 8.20534 8.85272 8.44267C8.85246 8.76076 8.7259 9.06572 8.50088 9.29054C8.27587 9.51537 7.9708 9.64166 7.65271 9.64166V9.64267Z" fill="#828281"/>
</svg>
