<svg width="16" height="14" viewBox="0 0 16 14" fill="none" xmlns="http://www.w3.org/2000/svg">
<g clip-path="url(#clip0_664_1524)">
<path d="M15.7244 6.46591L11.2061 4.24975V1.97447C11.2059 1.71324 11.1021 1.46278 10.9173 1.27805C10.7326 1.09333 10.4821 0.989466 10.2209 0.989258H0.985215C0.723979 0.989466 0.473518 1.09333 0.288796 1.27805C0.104074 1.46278 0.000208572 1.71324 0 1.97447V11.2117C0.00041701 11.4728 0.104361 11.7231 0.289061 11.9077C0.47376 12.0922 0.724115 12.196 0.985215 12.1962H2.4422C2.54961 12.4846 2.74265 12.7333 2.9954 12.9088C3.24814 13.0844 3.54852 13.1785 3.85626 13.1785C4.164 13.1785 4.4644 13.0844 4.71714 12.9088C4.96989 12.7333 5.1629 12.4846 5.27032 12.1962H11.7149C11.8223 12.4846 12.0153 12.7333 12.2681 12.9088C12.5208 13.0844 12.8212 13.1785 13.129 13.1785C13.4367 13.1785 13.7371 13.0844 13.9898 12.9088C14.2426 12.7333 14.4356 12.4846 14.543 12.1962H15.0155C15.2768 12.196 15.5273 12.0921 15.712 11.9074C15.8967 11.7227 16.0006 11.4722 16.0008 11.211V6.9093C16.0009 6.81691 15.975 6.72639 15.9261 6.64799C15.8773 6.5696 15.8073 6.50649 15.7244 6.46591ZM10.2201 11.211H5.29553C5.20085 10.9031 5.00996 10.6338 4.75091 10.4424C4.49187 10.2511 4.17831 10.1479 3.85626 10.1479C3.53421 10.1479 3.22065 10.2511 2.96161 10.4424C2.70256 10.6338 2.51169 10.9031 2.41701 11.211H0.986801V1.97524H10.2201V11.211ZM14.5682 11.211C14.4736 10.9033 14.2828 10.6341 14.0239 10.4429C13.765 10.2517 13.4516 10.1485 13.1297 10.1485C12.8079 10.1485 12.4945 10.2517 12.2356 10.4429C11.9767 10.6341 11.7859 10.9033 11.6913 11.211H11.2069V5.35072L15.014 7.21799V11.211H14.5682Z" fill="#828281"/>
</g>
<defs>
<clipPath id="clip0_664_1524">
<rect width="16" height="12.189" fill="white" transform="translate(0 0.989258)"/>
</clipPath>
</defs>
</svg>
