<svg width="179" height="33" viewBox="0 0 179 33" fill="none" xmlns="http://www.w3.org/2000/svg">
<path d="M11.627 11.19C12.6697 11.4813 13.4747 11.9873 14.042 12.708C14.6247 13.4133 14.916 14.2797 14.916 15.307C14.916 16.5183 14.571 17.6453 13.881 18.688C13.191 19.7307 12.2097 20.5663 10.937 21.195C9.67967 21.8083 8.23067 22.115 6.59 22.115C4.64267 22.115 3.10933 21.6933 1.99 20.85C0.886 20.0067 0.334 18.8337 0.334 17.331C0.334 16.5643 0.472 15.997 0.748 15.629C1.03933 15.261 1.47633 15.077 2.059 15.077C2.48833 15.077 2.82567 15.1997 3.071 15.445C3.33167 15.675 3.462 16.0123 3.462 16.457C3.462 17.2543 3.56167 17.883 3.761 18.343C3.97567 18.7877 4.313 19.1173 4.773 19.332C5.24833 19.5313 5.90767 19.631 6.751 19.631C7.671 19.631 8.49133 19.424 9.212 19.01C9.948 18.596 10.5153 18.0517 10.914 17.377C11.328 16.7023 11.535 15.9817 11.535 15.215C11.535 14.571 11.3817 14.0343 11.075 13.605C10.7683 13.1603 10.3697 12.8997 9.879 12.823C8.69833 13.4977 7.50233 13.835 6.291 13.835C5.785 13.835 5.42467 13.7507 5.21 13.582C4.99533 13.4133 4.888 13.1373 4.888 12.754C4.888 12.202 5.17933 11.7803 5.762 11.489C6.36 11.1977 7.29533 11.0213 8.568 10.96C10.132 9.97867 10.914 8.69067 10.914 7.096C10.914 6.42133 10.7223 5.9 10.339 5.532C9.95567 5.14867 9.38067 4.957 8.614 4.957C7.89333 4.957 7.257 5.072 6.705 5.302C6.153 5.51667 5.72367 5.81567 5.417 6.199C5.11033 6.567 4.957 6.96567 4.957 7.395C4.957 7.51767 4.97233 7.67867 5.003 7.878C5.03367 8.07733 5.049 8.23067 5.049 8.338C5.049 8.72133 4.92633 9.01267 4.681 9.212C4.451 9.396 4.13667 9.488 3.738 9.488C3.15533 9.488 2.73367 9.281 2.473 8.867C2.21233 8.43767 2.082 7.87033 2.082 7.165C2.082 6.32167 2.358 5.54733 2.91 4.842C3.47733 4.12133 4.28233 3.554 5.325 3.14C6.36767 2.71067 7.57133 2.496 8.936 2.496C10.6993 2.496 11.9873 2.84867 12.8 3.554C13.6127 4.25933 14.019 5.22533 14.019 6.452C14.019 7.372 13.812 8.246 13.398 9.074C12.9993 9.88667 12.409 10.592 11.627 11.19ZM19.599 22.115C18.6483 22.115 17.8893 21.77 17.322 21.08C16.7547 20.39 16.471 19.4853 16.471 18.366C16.471 17.1393 16.7547 15.9817 17.322 14.893C17.8893 13.789 18.6407 12.9073 19.576 12.248C20.5267 11.5733 21.531 11.236 22.589 11.236C22.9263 11.236 23.1487 11.305 23.256 11.443C23.3787 11.5657 23.4783 11.7957 23.555 12.133C23.877 12.0717 24.2143 12.041 24.567 12.041C25.3183 12.041 25.694 12.3093 25.694 12.846C25.694 13.168 25.579 13.9347 25.349 15.146C24.9963 16.9093 24.82 18.136 24.82 18.826C24.82 19.056 24.8737 19.24 24.981 19.378C25.1037 19.516 25.257 19.585 25.441 19.585C25.7323 19.585 26.085 19.401 26.499 19.033C26.913 18.6497 27.4727 18.0363 28.178 17.193C28.362 16.9783 28.569 16.871 28.799 16.871C28.9984 16.871 29.1517 16.963 29.259 17.147C29.3817 17.331 29.443 17.584 29.443 17.906C29.443 18.5193 29.2973 18.9947 29.006 19.332C28.3773 20.114 27.7103 20.7733 27.005 21.31C26.2997 21.8467 25.6173 22.115 24.958 22.115C24.452 22.115 23.9843 21.9463 23.555 21.609C23.141 21.2563 22.8267 20.781 22.612 20.183C21.8147 21.471 20.8103 22.115 19.599 22.115ZM20.427 19.792C20.7643 19.792 21.0863 19.5927 21.393 19.194C21.6997 18.7953 21.922 18.2663 22.06 17.607L22.911 13.375C22.267 13.3903 21.669 13.6357 21.117 14.111C20.5803 14.571 20.151 15.1843 19.829 15.951C19.507 16.7177 19.346 17.5303 19.346 18.389C19.346 18.8643 19.438 19.217 19.622 19.447C19.8213 19.677 20.0897 19.792 20.427 19.792ZM29.9197 22.115C29.2297 22.115 28.6624 21.8007 28.2177 21.172C27.7884 20.528 27.5737 19.7307 27.5737 18.78C27.5737 17.63 27.6504 16.5797 27.8037 15.629C27.9571 14.663 28.2101 13.6433 28.5627 12.57C28.7161 12.11 28.9307 11.7803 29.2067 11.581C29.4827 11.3817 29.9197 11.282 30.5177 11.282C30.8551 11.282 31.0851 11.3357 31.2077 11.443C31.3457 11.5503 31.4147 11.7113 31.4147 11.926C31.4147 12.0487 31.3304 12.4627 31.1617 13.168C31.0084 13.7353 30.8857 14.249 30.7937 14.709C30.4871 16.319 30.3337 17.3923 30.3337 17.929C30.3337 18.251 30.3721 18.481 30.4487 18.619C30.5254 18.7417 30.6481 18.803 30.8167 18.803C31.0467 18.803 31.3304 18.573 31.6677 18.113C32.0204 17.653 32.3884 16.9553 32.7717 16.02C33.1704 15.0847 33.5537 13.9347 33.9217 12.57C34.0444 12.11 34.2284 11.7803 34.4737 11.581C34.7344 11.3817 35.1177 11.282 35.6237 11.282C35.9764 11.282 36.2217 11.328 36.3597 11.42C36.4977 11.4967 36.5667 11.65 36.5667 11.88C36.5667 12.2633 36.3751 13.3137 35.9917 15.031C35.5624 16.9937 35.3477 18.205 35.3477 18.665C35.3477 18.9563 35.4091 19.1863 35.5317 19.355C35.6544 19.5083 35.8154 19.585 36.0147 19.585C36.3214 19.585 36.6817 19.401 37.0957 19.033C37.5251 18.6497 38.0924 18.0363 38.7977 17.193C38.9817 16.9783 39.1887 16.871 39.4187 16.871C39.6181 16.871 39.7714 16.963 39.8787 17.147C40.0014 17.331 40.0627 17.584 40.0627 17.906C40.0627 18.5193 39.9171 18.9947 39.6257 19.332C38.9664 20.1447 38.2534 20.8117 37.4867 21.333C36.7354 21.8543 35.8767 22.115 34.9107 22.115C34.1747 22.115 33.6304 21.8313 33.2777 21.264C32.9404 20.6967 32.7717 19.8993 32.7717 18.872C32.5111 19.9147 32.1201 20.7197 31.5987 21.287C31.0774 21.839 30.5177 22.115 29.9197 22.115ZM32.4037 9.764C31.6984 9.764 31.0774 9.61833 30.5407 9.327C30.0041 9.03567 29.5901 8.65233 29.2987 8.177C29.0074 7.70167 28.8617 7.19567 28.8617 6.659C28.8617 6.27567 28.9844 5.969 29.2297 5.739C29.4751 5.49367 29.7894 5.371 30.1727 5.371C30.5714 5.371 30.8627 5.463 31.0467 5.647C31.2307 5.831 31.3764 6.14533 31.4837 6.59C31.6371 7.234 32.0587 7.556 32.7487 7.556C33.4694 7.556 34.0904 7.35667 34.6117 6.958C35.1331 6.544 35.5087 6.04567 35.7387 5.463C35.8614 5.15633 35.9994 4.94167 36.1527 4.819C36.3061 4.681 36.5054 4.612 36.7507 4.612C36.9807 4.612 37.1724 4.704 37.3257 4.888C37.4944 5.05667 37.5787 5.27133 37.5787 5.532L37.5327 5.808C37.3794 6.43667 37.0957 7.05 36.6817 7.648C36.2677 8.246 35.7004 8.752 34.9797 9.166C34.2591 9.56467 33.4004 9.764 32.4037 9.764ZM41.7777 25.634C41.4403 25.634 41.172 25.5573 40.9727 25.404C40.7733 25.2507 40.6737 25.0053 40.6737 24.668C40.6737 24.53 40.6967 24.369 40.7427 24.185C40.9113 23.4797 41.034 22.828 41.1107 22.23C41.2027 21.632 41.2487 20.965 41.2487 20.229C41.2487 19.4623 41.425 18.872 41.7777 18.458C42.1457 18.044 42.6133 17.837 43.1807 17.837C43.7327 17.837 44.1467 17.9903 44.4227 18.297C44.714 18.5883 44.8597 18.987 44.8597 19.493C44.8597 20.0297 44.6987 20.7427 44.3767 21.632C44.0547 22.5213 43.6637 23.3877 43.2037 24.231C42.897 24.7983 42.6517 25.174 42.4677 25.358C42.299 25.542 42.069 25.634 41.7777 25.634ZM55.0368 22.115C54.4541 22.115 54.0401 21.8083 53.7948 21.195C53.5648 20.5817 53.4498 19.6003 53.4498 18.251C53.4498 16.2577 53.7335 14.364 54.3008 12.57C54.4388 12.1253 54.6611 11.8033 54.9678 11.604C55.2898 11.3893 55.7345 11.282 56.3018 11.282C56.6085 11.282 56.8231 11.3203 56.9458 11.397C57.0685 11.4737 57.1298 11.6193 57.1298 11.834C57.1298 12.0793 57.0148 12.6313 56.7848 13.49C56.7541 13.5973 56.6851 13.8427 56.5778 14.226C56.4858 14.6093 56.3938 15.0617 56.3018 15.583C56.2251 16.089 56.1715 16.6487 56.1408 17.262C56.6928 15.1153 57.3905 13.582 58.2338 12.662C59.0771 11.742 60.0968 11.282 61.2928 11.282C62.0901 11.282 62.7111 11.535 63.1558 12.041C63.6158 12.5317 63.8458 13.168 63.8458 13.95C63.8458 14.594 63.7001 15.1383 63.4088 15.583C63.1328 16.0277 62.7648 16.25 62.3048 16.25C62.0135 16.25 61.7758 16.181 61.5918 16.043C61.4231 15.905 61.3388 15.7133 61.3388 15.468C61.3388 15.3607 61.3541 15.238 61.3848 15.1C61.4155 14.962 61.4385 14.8623 61.4538 14.801C61.5305 14.571 61.5688 14.3563 61.5688 14.157C61.5688 13.743 61.3695 13.536 60.9708 13.536C60.6641 13.536 60.3651 13.697 60.0738 14.019C59.7825 14.3257 59.5448 14.7473 59.3608 15.284C59.1921 15.8053 59.1078 16.3727 59.1078 16.986C59.1078 17.814 59.2995 18.481 59.6828 18.987C60.0661 19.4777 60.6181 19.723 61.3388 19.723C61.9061 19.723 62.4121 19.539 62.8568 19.171C63.3015 18.7877 63.9148 18.1283 64.6968 17.193C64.8808 16.9783 65.0878 16.871 65.3178 16.871C65.5171 16.871 65.6705 16.963 65.7778 17.147C65.9005 17.331 65.9618 17.584 65.9618 17.906C65.9618 18.5193 65.8161 18.9947 65.5248 19.332C64.8348 20.16 64.1448 20.8347 63.4548 21.356C62.7648 21.862 61.9828 22.115 61.1088 22.115C60.3881 22.115 59.7288 21.9617 59.1308 21.655C58.5481 21.333 58.0728 20.9497 57.7048 20.505C57.3368 20.0603 57.0991 19.631 56.9918 19.217C56.9611 19.3397 56.8461 19.769 56.6468 20.505C56.4781 21.1183 56.2788 21.54 56.0488 21.77C55.8341 22 55.4968 22.115 55.0368 22.115ZM75.8712 16.917C76.0705 16.917 76.2239 17.0167 76.3312 17.216C76.4539 17.4 76.5152 17.6377 76.5152 17.929C76.5152 18.2817 76.4615 18.5577 76.3542 18.757C76.2469 18.9563 76.0782 19.1327 75.8482 19.286L71.4322 22.253C70.8495 25.427 70.0829 27.9187 69.1322 29.728C68.1969 31.5527 67.0009 32.465 65.5442 32.465C64.7622 32.465 64.1259 32.2197 63.6352 31.729C63.1445 31.2537 62.8992 30.625 62.8992 29.843C62.8992 29.1223 63.0602 28.3863 63.3822 27.635C63.7195 26.8837 64.3329 26.0173 65.2222 25.036C66.1269 24.07 67.3995 22.9583 69.0402 21.701L69.1092 21.172C69.2165 20.6047 69.3392 19.792 69.4772 18.734C69.1705 19.838 68.7412 20.6813 68.1892 21.264C67.6372 21.8313 67.0545 22.115 66.4412 22.115C65.7512 22.115 65.1839 21.8007 64.7392 21.172C64.3099 20.528 64.0952 19.7307 64.0952 18.78C64.0952 17.63 64.1719 16.5797 64.3252 15.629C64.4785 14.663 64.7315 13.6433 65.0842 12.57C65.2375 12.11 65.4522 11.7803 65.7282 11.581C66.0042 11.3817 66.4412 11.282 67.0392 11.282C67.3765 11.282 67.6065 11.3357 67.7292 11.443C67.8672 11.5503 67.9362 11.7113 67.9362 11.926C67.9362 12.0487 67.8519 12.4627 67.6832 13.168C67.5299 13.7353 67.4072 14.249 67.3152 14.709C67.1925 15.3377 67.0852 15.9433 66.9932 16.526C66.9012 17.0933 66.8552 17.561 66.8552 17.929C66.8552 18.5117 67.0162 18.803 67.3382 18.803C67.5682 18.803 67.8519 18.573 68.1892 18.113C68.5419 17.653 68.9099 16.9553 69.2932 16.02C69.6919 15.0847 70.0752 13.9347 70.4432 12.57C70.5659 12.11 70.7499 11.7803 70.9952 11.581C71.2559 11.3817 71.6392 11.282 72.1452 11.282C72.4979 11.282 72.7432 11.328 72.8812 11.42C73.0192 11.512 73.0882 11.6653 73.0882 11.88C73.0882 12.2633 72.8889 13.582 72.4902 15.836L71.8922 19.539C73.0729 18.6497 74.2229 17.837 75.3422 17.101C75.5415 16.9783 75.7179 16.917 75.8712 16.917ZM65.7972 30.234C66.1805 30.234 66.6099 29.7893 67.0852 28.9C67.5605 28.0107 68.0359 26.531 68.5112 24.461C67.3305 25.4577 66.4719 26.3623 65.9352 27.175C65.4139 28.003 65.1532 28.7237 65.1532 29.337C65.1532 29.5977 65.1992 29.8123 65.2912 29.981C65.3985 30.1497 65.5672 30.234 65.7972 30.234ZM76.487 22.115C75.9043 22.115 75.4903 21.8083 75.245 21.195C75.015 20.5817 74.9 19.6003 74.9 18.251C74.9 16.2577 75.1837 14.364 75.751 12.57C75.889 12.1253 76.1113 11.8033 76.418 11.604C76.74 11.3893 77.1847 11.282 77.752 11.282C78.0587 11.282 78.2733 11.3203 78.396 11.397C78.5187 11.4737 78.58 11.6193 78.58 11.834C78.58 12.0793 78.465 12.6313 78.235 13.49C78.0817 14.1033 77.959 14.64 77.867 15.1C77.775 15.56 77.6983 16.1273 77.637 16.802C78.143 15.4833 78.7103 14.41 79.339 13.582C79.9677 12.754 80.581 12.1637 81.179 11.811C81.7923 11.4583 82.352 11.282 82.858 11.282C83.8547 11.282 84.353 11.7803 84.353 12.777C84.353 13.375 84.1843 14.456 83.847 16.02C83.5557 17.354 83.41 18.2357 83.41 18.665C83.41 19.2783 83.6323 19.585 84.077 19.585C84.3837 19.585 84.744 19.401 85.158 19.033C85.5873 18.6497 86.1547 18.0363 86.86 17.193C87.044 16.9783 87.251 16.871 87.481 16.871C87.6803 16.871 87.8337 16.963 87.941 17.147C88.0637 17.331 88.125 17.584 88.125 17.906C88.125 18.5193 87.9793 18.9947 87.688 19.332C87.0287 20.1447 86.3157 20.8117 85.549 21.333C84.7977 21.8543 83.939 22.115 82.973 22.115C82.191 22.115 81.6007 21.8927 81.202 21.448C80.8033 20.988 80.604 20.3287 80.604 19.47C80.604 19.0407 80.7113 18.274 80.926 17.17C81.1253 16.204 81.225 15.537 81.225 15.169C81.225 14.9237 81.1407 14.801 80.972 14.801C80.7727 14.801 80.489 15.0617 80.121 15.583C79.7683 16.089 79.4003 16.7637 79.017 17.607C78.649 18.4503 78.35 19.3397 78.12 20.275C77.9513 20.9957 77.752 21.4863 77.522 21.747C77.3073 21.9923 76.9623 22.115 76.487 22.115ZM88.6102 22.115C87.9202 22.115 87.3528 21.8007 86.9082 21.172C86.4788 20.528 86.2642 19.7307 86.2642 18.78C86.2642 17.63 86.3408 16.5797 86.4942 15.629C86.6475 14.663 86.9005 13.6433 87.2532 12.57C87.4065 12.11 87.6212 11.7803 87.8972 11.581C88.1732 11.3817 88.6102 11.282 89.2082 11.282C89.5455 11.282 89.7755 11.3357 89.8982 11.443C90.0362 11.5503 90.1052 11.7113 90.1052 11.926C90.1052 12.0487 90.0208 12.4627 89.8522 13.168C89.6988 13.7353 89.5762 14.249 89.4842 14.709C89.1775 16.319 89.0242 17.3923 89.0242 17.929C89.0242 18.251 89.0625 18.481 89.1392 18.619C89.2158 18.7417 89.3385 18.803 89.5072 18.803C89.7372 18.803 90.0208 18.573 90.3582 18.113C90.7108 17.653 91.0788 16.9553 91.4622 16.02C91.8608 15.0847 92.2442 13.9347 92.6122 12.57C92.7348 12.11 92.9188 11.7803 93.1642 11.581C93.4248 11.3817 93.8082 11.282 94.3142 11.282C94.6668 11.282 94.9122 11.328 95.0502 11.42C95.1882 11.4967 95.2572 11.65 95.2572 11.88C95.2572 12.2633 95.0655 13.3137 94.6822 15.031C94.2528 16.9937 94.0382 18.205 94.0382 18.665C94.0382 18.9563 94.0995 19.1863 94.2222 19.355C94.3448 19.5083 94.5058 19.585 94.7052 19.585C95.0118 19.585 95.3722 19.401 95.7862 19.033C96.2155 18.6497 96.7828 18.0363 97.4882 17.193C97.6722 16.9783 97.8792 16.871 98.1092 16.871C98.3085 16.871 98.4618 16.963 98.5692 17.147C98.6918 17.331 98.7532 17.584 98.7532 17.906C98.7532 18.5193 98.6075 18.9947 98.3162 19.332C97.6568 20.1447 96.9438 20.8117 96.1772 21.333C95.4258 21.8543 94.5672 22.115 93.6012 22.115C92.8652 22.115 92.3208 21.8313 91.9682 21.264C91.6308 20.6967 91.4622 19.8993 91.4622 18.872C91.2015 19.9147 90.8105 20.7197 90.2892 21.287C89.7678 21.839 89.2082 22.115 88.6102 22.115ZM115.096 20.252C114.406 20.7273 113.302 21.4173 111.784 22.322C111.585 23.242 111.393 24.0393 111.209 24.714C110.826 26.094 110.258 27.152 109.507 27.888C108.756 28.624 107.897 28.992 106.931 28.992C106.287 28.992 105.75 28.7773 105.321 28.348C104.907 27.9187 104.7 27.382 104.7 26.738C104.7 26.186 104.83 25.657 105.091 25.151C105.367 24.6603 105.858 24.1083 106.563 23.495C107.284 22.8817 108.296 22.184 109.599 21.402V21.356C109.154 21.2793 108.802 21.0263 108.541 20.597C108.296 20.1523 108.173 19.5773 108.173 18.872C107.928 19.8687 107.544 20.6583 107.023 21.241C106.517 21.8237 105.95 22.115 105.321 22.115C104.646 22.115 104.087 21.8007 103.642 21.172C103.197 20.5433 102.975 19.746 102.975 18.78C102.975 17.6453 103.052 16.6027 103.205 15.652C103.358 14.686 103.611 13.6587 103.964 12.57C104.117 12.0947 104.332 11.765 104.608 11.581C104.899 11.3817 105.336 11.282 105.919 11.282C106.241 11.282 106.471 11.3357 106.609 11.443C106.747 11.535 106.816 11.696 106.816 11.926C106.816 12.0487 106.732 12.4627 106.563 13.168C106.41 13.7353 106.287 14.249 106.195 14.709C105.888 16.3343 105.735 17.4077 105.735 17.929C105.735 18.2357 105.773 18.458 105.85 18.596C105.927 18.734 106.049 18.803 106.218 18.803C106.632 18.803 107.13 18.2203 107.713 17.055C108.296 15.8897 108.832 14.3947 109.323 12.57C109.446 12.0947 109.637 11.765 109.898 11.581C110.159 11.3817 110.534 11.282 111.025 11.282C111.378 11.282 111.623 11.328 111.761 11.42C111.899 11.4967 111.968 11.65 111.968 11.88C111.968 12.248 111.776 13.26 111.393 14.916C111.224 15.606 111.071 16.2883 110.933 16.963C110.795 17.6377 110.726 18.1207 110.726 18.412C110.726 18.7033 110.764 18.9103 110.841 19.033C110.918 19.1403 111.033 19.194 111.186 19.194C111.247 19.194 111.316 19.1863 111.393 19.171C111.47 19.1557 111.546 19.148 111.623 19.148C111.73 19.148 111.807 19.2017 111.853 19.309C111.914 19.4163 111.937 19.631 111.922 19.953C112.903 19.3397 113.793 18.734 114.59 18.136C114.759 18.0133 114.935 17.952 115.119 17.952C115.318 17.952 115.472 18.044 115.579 18.228C115.702 18.412 115.763 18.6573 115.763 18.964C115.763 19.286 115.717 19.539 115.625 19.723C115.533 19.8917 115.357 20.068 115.096 20.252ZM107.414 26.83C107.813 26.83 108.196 26.5387 108.564 25.956C108.932 25.3733 109.185 24.599 109.323 23.633C107.728 24.5837 106.931 25.4807 106.931 26.324C106.931 26.6613 107.092 26.83 107.414 26.83ZM126.734 14.939C126.933 14.939 127.086 15.0387 127.194 15.238C127.301 15.4373 127.355 15.6903 127.355 15.997C127.355 16.3803 127.301 16.6793 127.194 16.894C127.086 17.0933 126.918 17.2313 126.688 17.308C125.768 17.63 124.756 17.814 123.652 17.86C123.345 19.1327 122.762 20.16 121.904 20.942C121.06 21.724 120.125 22.115 119.098 22.115C117.549 22.115 116.422 21.5247 115.717 20.344C115.011 19.1633 114.659 17.4537 114.659 15.215C114.659 13.237 114.904 11.0903 115.395 8.775C115.885 6.44433 116.598 4.46633 117.534 2.841C118.484 1.20033 119.611 0.379999 120.915 0.379999C121.62 0.379999 122.187 0.686666 122.617 1.3C123.046 1.898 123.261 2.68 123.261 3.646C123.261 4.90333 123.023 6.153 122.548 7.395C122.072 8.637 121.283 9.94033 120.179 11.305C121.206 11.3817 122.042 11.811 122.686 12.593C123.33 13.3597 123.713 14.3103 123.836 15.445C124.556 15.399 125.415 15.2457 126.412 14.985C126.504 14.9543 126.611 14.939 126.734 14.939ZM120.386 2.657C120.079 2.657 119.742 3.117 119.374 4.037C119.021 4.94167 118.691 6.176 118.385 7.74C118.078 9.304 117.848 11.0137 117.695 12.869C118.707 11.0137 119.512 9.38067 120.11 7.97C120.723 6.544 121.03 5.279 121.03 4.175C121.03 3.68433 120.968 3.30867 120.846 3.048C120.738 2.78733 120.585 2.657 120.386 2.657ZM119.19 19.677C119.665 19.677 120.087 19.4777 120.455 19.079C120.823 18.6803 121.068 18.1053 121.191 17.354C120.715 17.032 120.347 16.6103 120.087 16.089C119.841 15.5677 119.719 15.0157 119.719 14.433C119.719 14.2183 119.749 13.927 119.811 13.559H119.742C119.113 13.559 118.584 13.8733 118.155 14.502C117.741 15.1153 117.534 15.9433 117.534 16.986C117.534 17.86 117.695 18.527 118.017 18.987C118.354 19.447 118.745 19.677 119.19 19.677ZM135.627 16.871C135.826 16.871 135.979 16.963 136.087 17.147C136.209 17.331 136.271 17.584 136.271 17.906C136.271 18.5193 136.125 18.9947 135.834 19.332C135.266 20.022 134.461 20.6583 133.419 21.241C132.391 21.8237 131.287 22.115 130.107 22.115C128.497 22.115 127.247 21.678 126.358 20.804C125.468 19.93 125.024 18.734 125.024 17.216C125.024 16.158 125.246 15.1767 125.691 14.272C126.135 13.352 126.749 12.6237 127.531 12.087C128.328 11.5503 129.225 11.282 130.222 11.282C131.111 11.282 131.824 11.5503 132.361 12.087C132.897 12.6083 133.166 13.3213 133.166 14.226C133.166 15.284 132.782 16.1963 132.016 16.963C131.264 17.7143 129.984 18.3123 128.175 18.757C128.558 19.4623 129.286 19.815 130.36 19.815C131.05 19.815 131.832 19.5773 132.706 19.102C133.595 18.6113 134.362 17.975 135.006 17.193C135.19 16.9783 135.397 16.871 135.627 16.871ZM129.831 13.536C129.263 13.536 128.78 13.8657 128.382 14.525C127.998 15.1843 127.807 15.9817 127.807 16.917V16.963C128.711 16.7483 129.424 16.4263 129.946 15.997C130.467 15.5677 130.728 15.0693 130.728 14.502C130.728 14.2107 130.643 13.9807 130.475 13.812C130.321 13.628 130.107 13.536 129.831 13.536ZM136.031 22.115C135.448 22.115 135.034 21.8083 134.789 21.195C134.559 20.5817 134.444 19.6003 134.444 18.251C134.444 16.2577 134.728 14.364 135.295 12.57C135.433 12.1253 135.655 11.8033 135.962 11.604C136.284 11.3893 136.729 11.282 137.296 11.282C137.603 11.282 137.817 11.3203 137.94 11.397C138.063 11.4737 138.124 11.6193 138.124 11.834C138.124 12.0793 138.009 12.6313 137.779 13.49C137.626 14.1033 137.503 14.64 137.411 15.1C137.319 15.5447 137.242 16.1043 137.181 16.779C137.595 15.583 138.086 14.571 138.653 13.743C139.236 12.915 139.826 12.3017 140.424 11.903C141.037 11.489 141.612 11.282 142.149 11.282C142.686 11.282 143.061 11.4047 143.276 11.65C143.506 11.8953 143.621 12.271 143.621 12.777C143.621 13.2677 143.475 14.157 143.184 15.445C143.061 15.997 142.977 16.411 142.931 16.687C143.698 14.801 144.549 13.4287 145.484 12.57C146.419 11.7113 147.293 11.282 148.106 11.282C149.103 11.282 149.601 11.7803 149.601 12.777C149.601 13.375 149.432 14.456 149.095 16.02C148.804 17.354 148.658 18.2357 148.658 18.665C148.658 19.2783 148.88 19.585 149.325 19.585C149.632 19.585 149.992 19.401 150.406 19.033C150.835 18.6497 151.403 18.0363 152.108 17.193C152.292 16.9783 152.499 16.871 152.729 16.871C152.928 16.871 153.082 16.963 153.189 17.147C153.312 17.331 153.373 17.584 153.373 17.906C153.373 18.5193 153.227 18.9947 152.936 19.332C152.277 20.1447 151.564 20.8117 150.797 21.333C150.046 21.8543 149.187 22.115 148.221 22.115C147.439 22.115 146.849 21.8927 146.45 21.448C146.051 20.988 145.852 20.3287 145.852 19.47C145.852 19.0407 145.959 18.274 146.174 17.17C146.373 16.204 146.473 15.537 146.473 15.169C146.473 14.9237 146.389 14.801 146.22 14.801C146.021 14.801 145.737 15.0617 145.369 15.583C145.001 16.089 144.633 16.7637 144.265 17.607C143.897 18.4503 143.598 19.3397 143.368 20.275C143.199 21.011 143 21.5017 142.77 21.747C142.555 21.9923 142.203 22.115 141.712 22.115C141.206 22.115 140.823 21.8773 140.562 21.402C140.317 20.9113 140.194 20.321 140.194 19.631C140.194 19.0483 140.271 18.205 140.424 17.101C140.547 16.1197 140.608 15.4757 140.608 15.169C140.608 14.9237 140.524 14.801 140.355 14.801C140.125 14.801 139.834 15.077 139.481 15.629C139.128 16.181 138.783 16.8863 138.446 17.745C138.124 18.6037 137.863 19.447 137.664 20.275C137.495 20.9957 137.296 21.4863 137.066 21.747C136.851 21.9923 136.506 22.115 136.031 22.115ZM168.878 16.871C169.078 16.871 169.231 16.963 169.338 17.147C169.461 17.331 169.522 17.584 169.522 17.906C169.522 18.5193 169.377 18.9947 169.085 19.332C167.567 21.1873 166.149 22.115 164.83 22.115C163.834 22.115 163.105 21.7623 162.645 21.057C162.201 20.3517 161.978 19.4163 161.978 18.251V17.906C161.135 19.1787 160.2 20.1983 159.172 20.965C158.16 21.7317 157.095 22.115 155.975 22.115C154.641 22.115 153.576 21.7163 152.778 20.919C151.996 20.1217 151.605 19.0943 151.605 17.837C151.605 16.917 151.674 16.043 151.812 15.215C151.95 14.387 152.165 13.5053 152.456 12.57C152.594 12.1253 152.817 11.8033 153.123 11.604C153.445 11.3893 153.905 11.282 154.503 11.282C155.193 11.282 155.538 11.466 155.538 11.834C155.538 11.9873 155.423 12.5393 155.193 13.49L155.032 14.18L154.71 15.56C155.124 15.146 155.615 14.8087 156.182 14.548C156.765 14.272 157.355 14.134 157.953 14.134C158.659 14.134 159.241 14.3487 159.701 14.778C160.161 15.192 160.422 15.7823 160.483 16.549C161.081 15.8283 161.572 15.1537 161.955 14.525C162.339 13.881 162.668 13.214 162.944 12.524C163.082 12.064 163.259 11.742 163.473 11.558C163.703 11.374 164.071 11.282 164.577 11.282C165.359 11.282 165.75 11.5427 165.75 12.064C165.75 12.4473 165.605 13.3367 165.313 14.732C164.945 16.4187 164.761 17.561 164.761 18.159C164.761 18.619 164.823 18.9717 164.945 19.217C165.068 19.4623 165.275 19.585 165.566 19.585C165.842 19.585 166.187 19.3933 166.601 19.01C167.015 18.6267 167.567 18.021 168.257 17.193C168.441 16.9783 168.648 16.871 168.878 16.871ZM158.114 17.768C158.114 16.9553 157.677 16.549 156.803 16.549C156.282 16.549 155.822 16.6947 155.423 16.986C155.04 17.2773 154.733 17.6147 154.503 17.998C154.565 18.5653 154.726 18.987 154.986 19.263C155.247 19.539 155.646 19.677 156.182 19.677C156.796 19.677 157.271 19.5083 157.608 19.171C157.946 18.8337 158.114 18.366 158.114 17.768ZM173.451 16.618C173.144 16.618 172.891 16.549 172.692 16.411C172.492 16.273 172.393 16.0583 172.393 15.767L172.416 15.583C172.676 13.8657 173.029 11.9107 173.474 9.718C173.918 7.52533 174.332 5.63167 174.716 4.037C174.961 3.05567 175.628 2.565 176.717 2.565C177.698 2.565 178.189 2.87933 178.189 3.508C178.189 3.646 178.166 3.79933 178.12 3.968C177.721 5.59333 177.192 7.56367 176.533 9.879C175.873 12.179 175.245 14.18 174.647 15.882C174.478 16.3727 174.079 16.618 173.451 16.618ZM172.577 22.115C171.902 22.115 171.388 21.931 171.036 21.563C170.698 21.195 170.53 20.712 170.53 20.114C170.53 19.424 170.721 18.872 171.105 18.458C171.503 18.044 172.055 17.837 172.761 17.837C173.435 17.837 173.941 18.0057 174.279 18.343C174.631 18.665 174.808 19.148 174.808 19.792C174.808 20.4973 174.608 21.0647 174.21 21.494C173.811 21.908 173.267 22.115 172.577 22.115Z" fill="#F07591"/>
</svg>
