<svg width="33" height="43" viewBox="0 0 33 43" fill="none" xmlns="http://www.w3.org/2000/svg">
<path d="M16.8125 0.875C12.5359 0.875 8.43443 2.57388 5.4104 5.5979C2.38638 8.62193 0.6875 12.7234 0.6875 17C0.6875 25.1562 14.1875 39.5938 16.475 41.9938C16.5171 42.0386 16.5679 42.0743 16.6243 42.0988C16.6808 42.1232 16.7416 42.1358 16.8031 42.1358C16.8646 42.1358 16.9255 42.1232 16.9819 42.0988C17.0383 42.0743 17.0892 42.0386 17.1312 41.9938C19.4187 39.6125 32.9188 25.1188 32.9188 17C32.9188 12.7266 31.2224 8.62801 28.2025 5.60453C25.1825 2.58104 21.0859 0.879969 16.8125 0.875ZM16.8125 22.7563C15.6765 22.7451 14.5692 22.3981 13.63 21.7589C12.6908 21.1197 11.9618 20.2169 11.5347 19.1641C11.1076 18.1114 11.0016 16.9558 11.23 15.8429C11.4585 14.7301 12.0111 13.7097 12.8183 12.9102C13.6255 12.1108 14.6512 11.5682 15.7663 11.3506C16.8813 11.133 18.0358 11.2502 19.0844 11.6875C20.1329 12.1248 21.0286 12.8626 21.6587 13.8079C22.2887 14.7533 22.6249 15.8639 22.625 17C22.625 17.7607 22.4743 18.5138 22.1815 19.2159C21.8887 19.918 21.4597 20.555 20.9192 21.0903C20.3787 21.6256 19.7375 22.0484 19.0326 22.3343C18.3277 22.6203 17.5731 22.7637 16.8125 22.7563Z" fill="#232324"/>
</svg>
