<svg width="16" height="14" viewBox="0 0 16 14" fill="none" xmlns="http://www.w3.org/2000/svg">
<g clip-path="url(#clip0_664_1531)">
<path d="M14.9991 0.583984H3.65438C3.38898 0.584229 3.13453 0.699636 2.94687 0.904883C2.7592 1.11013 2.65365 1.38847 2.65343 1.67873V3.63274H1.0001C0.73485 3.63323 0.480612 3.74876 0.293128 3.95398C0.105645 4.1592 0.000223089 4.43739 0 4.72749V12.4892C0.000223089 12.7793 0.105645 13.0575 0.293128 13.2627C0.480612 13.468 0.73485 13.5835 1.0001 13.584H12.3456C12.6109 13.5835 12.8651 13.468 13.0526 13.2627C13.2401 13.0575 13.3455 12.7793 13.3457 12.4892V10.5352H14.9991C15.2643 10.5347 15.5185 10.4192 15.706 10.214C15.8935 10.0088 15.9989 9.73056 15.9992 9.44046V1.67772C15.9987 1.38778 15.8932 1.1099 15.7057 0.904883C15.5183 0.699862 15.2642 0.584472 14.9991 0.583984ZM3.14969 4.72749H12.3447V6.43046H1.0018V4.72749H3.14969ZM1.0001 4.17922V4.72749V4.17922ZM1.0001 12.4865V9.04632H12.3431V12.4911L1.0001 12.4865ZM13.3449 9.44046V4.73301C13.3447 4.44291 13.2392 4.16472 13.0517 3.9595C12.8643 3.75428 12.61 3.63875 12.3447 3.63826H3.65186V1.68606H14.9957V9.447L13.3449 9.44046Z" fill="#828281"/>
</g>
<defs>
<clipPath id="clip0_664_1531">
<rect width="16" height="13" fill="white" transform="translate(0 0.583984)"/>
</clipPath>
</defs>
</svg>
