<svg width="16" height="17" viewBox="0 0 16 17" fill="none" xmlns="http://www.w3.org/2000/svg">
<path fill-rule="evenodd" clip-rule="evenodd" d="M14.1021 2.08398C14.458 2.08398 14.7466 2.37253 14.7466 2.72847V8.45727C14.7466 8.81321 14.458 9.10176 14.1021 9.10176C13.7462 9.10176 13.4576 8.81321 13.4576 8.45727V4.28441L4.20042 13.5416H8.37328C8.72923 13.5416 9.01777 13.8302 9.01777 14.1861C9.01777 14.542 8.72923 14.8306 8.37328 14.8306H2.64449C2.47356 14.8306 2.30963 14.7627 2.18876 14.6418C2.0679 14.5209 2 14.3569 2 14.1861V8.45727C2 8.10132 2.28855 7.81278 2.64449 7.81278C3.00043 7.81278 3.28898 8.10132 3.28898 8.45727V12.6301L12.5462 3.37296H8.37328C8.01734 3.37296 7.72879 3.08442 7.72879 2.72847C7.72879 2.37253 8.01734 2.08398 8.37328 2.08398H14.1021Z" fill="#828281"/>
</svg>
