<svg width="24" height="24" viewBox="0 0 24 24" fill="none" xmlns="http://www.w3.org/2000/svg">
<g clip-path="url(#clip0_664_2322)">
<path d="M12 17C11.59 17 11.25 16.66 11.25 16.25V11.25C11.25 10.84 11.59 10.5 12 10.5C12.41 10.5 12.75 10.84 12.75 11.25V16.25C12.75 16.66 12.41 17 12 17Z" fill="#F07591"/>
<path d="M12 8.99922C11.74 8.99922 11.48 8.88922 11.29 8.70922C11.2 8.60922 11.13 8.50922 11.08 8.37922C11.03 8.25922 11 8.12922 11 7.99922C11 7.73922 11.11 7.47922 11.29 7.28922C11.67 6.91922 12.33 6.91922 12.7 7.28922C12.89 7.47922 13 7.73922 13 7.99922C13 8.12922 12.97 8.25922 12.92 8.37922C12.87 8.50922 12.8 8.60922 12.7 8.70922C12.61 8.79922 12.5 8.86922 12.38 8.91922C12.26 8.96922 12.13 8.99922 12 8.99922Z" fill="#F07591"/>
<path d="M11.9896 21.9997C9.40957 21.9997 6.96957 21.0297 5.09957 19.2397C3.16957 17.3997 2.06957 14.9097 1.99957 12.2397C1.92957 9.5697 2.91957 7.0397 4.75957 5.0997C6.59957 3.1697 9.08957 2.0697 11.7596 1.9997C14.4096 1.9397 16.9696 2.9097 18.8996 4.7597C20.8296 6.5997 21.9296 9.0897 21.9996 11.7597C22.0596 14.4297 21.0896 16.9697 19.2396 18.8997C17.3996 20.8297 14.9096 21.9297 12.2396 21.9997C12.1596 21.9997 12.0796 21.9997 11.9896 21.9997ZM12.0096 3.4997C11.9396 3.4997 11.8696 3.4997 11.7996 3.4997C9.51957 3.5597 7.40957 4.4897 5.84957 6.1397C4.27957 7.7797 3.44957 9.9397 3.50957 12.2097C3.55957 14.4797 4.49957 16.5897 6.13957 18.1597C7.77957 19.7297 9.94957 20.5597 12.2096 20.4997C14.4796 20.4497 16.5896 19.5097 18.1596 17.8697C19.7296 16.2297 20.5596 14.0697 20.4996 11.7997C20.4496 9.5297 19.5096 7.4197 17.8696 5.8497C16.2696 4.3297 14.1996 3.4997 12.0096 3.4997Z" fill="#F07591"/>
</g>
<defs>
<clipPath id="clip0_664_2322">
<rect width="24" height="24" fill="white"/>
</clipPath>
</defs>
</svg>
